<?xml version="1.0" standalone="no"?><!DOCTYPE svg PUBLIC "-//W3C//DTD SVG 1.1//EN" "http://www.w3.org/Graphics/SVG/1.1/DTD/svg11.dtd"><svg class="icon" height="512" viewBox="0 0 1024 1024" version="1.1" xmlns="http://www.w3.org/2000/svg"><path d="M896 199.29v51.2H677.55V435.57H493.23v204.82H302.08v184.32H128v-51.2h122.88V589.19h191.15V384.37h184.32V199.29H896z m-474.604 73.022l-140.216 18.33c-2.048 0.256-3.645 1.864-3.932 3.901a4.594 4.594 0 0 0 2.703 4.844l56.3 24.412-93.42 93.41c-1.781 1.802-1.792 4.69 0 6.481l32.338 32.338c1.782 1.792 4.68 1.782 6.472 0l93.42-93.42 24.412 56.29a4.58 4.58 0 0 0 4.833 2.714 4.64 4.64 0 0 0 2.6-1.301 4.63 4.63 0 0 0 1.301-2.642l18.33-140.216a4.555 4.555 0 0 0-1.3-3.83 4.668 4.668 0 0 0-3.84-1.31z" /></svg>